<svg width="233" height="202" viewBox="0 0 233 202" fill="none" xmlns="http://www.w3.org/2000/svg">
<g clip-path="url(#clip0_617_1663)">
<mask id="mask0_617_1663" style="mask-type:luminance" maskUnits="userSpaceOnUse" x="0" y="0" width="233" height="202">
<path d="M232.5 0.5H0.5V201.5H232.5V0.5Z" fill="white"/>
</mask>
<g mask="url(#mask0_617_1663)">
<path d="M183.702 17.0985C183.441 16.9245 183.177 16.7595 182.917 16.5914C175.38 11.7654 167.301 7.84485 158.849 4.91067L156.889 31.9808H144.463V0.959069C143.681 0.797045 142.893 0.644022 142.105 0.5V31.9808H127.339C119.21 31.9808 111.415 28.7478 105.667 22.9932C99.919 17.2385 96.6899 9.43348 96.6899 1.29515C95.8987 1.46618 95.1135 1.64918 94.3284 1.84421V31.9808H82.3018L80.4347 6.16786C71.7481 9.50326 63.5013 13.8895 55.878 19.2288C55.7462 19.3189 55.6143 19.4119 55.4854 19.5019C54.8231 19.967 54.1698 20.441 53.5195 20.9211V124.194H88.9639L88.3375 115.507L84.8911 67.8152H154.296L150.85 115.507L150.223 124.194H185.275V18.1427C184.754 17.7886 184.229 17.4406 183.702 17.0985ZM94.3284 59.939H84.3217L82.4726 34.3451H94.3284V59.939ZM142.105 59.939H125.298V59.4319C125.298 59.1882 125.25 58.9468 125.157 58.7216C125.064 58.4964 124.927 58.2919 124.755 58.1197C124.582 57.9474 124.378 57.8109 124.153 57.7179C123.928 57.6249 123.687 57.5772 123.443 57.5776H116.137C115.893 57.5775 115.653 57.6254 115.428 57.7186C115.203 57.8118 114.999 57.9483 114.827 58.1205C114.655 58.2927 114.518 58.4972 114.425 58.7222C114.332 58.9472 114.284 59.1884 114.285 59.4319V59.939H96.6899V34.3451H142.105V59.939ZM144.463 59.939V34.3451H156.718L154.869 59.939H144.463Z" fill="#F2F2F2"/>
<path d="M222.196 188.194L222.43 182.921C224.872 181.614 227.596 180.923 230.365 180.91C226.554 184.029 227.031 190.042 224.447 194.237C223.631 195.54 222.533 196.641 221.234 197.461C219.935 198.28 218.468 198.797 216.943 198.972L213.754 200.927C213.316 198.484 213.413 195.976 214.037 193.574C214.66 191.172 215.797 188.935 217.368 187.015C218.26 185.947 219.282 184.996 220.412 184.184C221.176 186.2 222.196 188.194 222.196 188.194Z" fill="#F2F2F2"/>
<path d="M51.0868 182.413L43.3906 180.08C42.3813 175.975 42.3882 171.685 43.4108 167.582C46.5801 174.396 55.6358 175.956 60.8548 181.359C62.4697 183.057 63.6823 185.097 64.4028 187.327C65.1233 189.558 65.3332 191.922 65.0169 194.245L66.7015 199.7C62.9313 199.428 59.2648 198.34 55.9549 196.512C52.6449 194.685 49.77 192.16 47.5283 189.113C46.2876 187.391 45.2684 185.52 44.4949 183.543C47.759 183.172 51.0868 182.413 51.0868 182.413Z" fill="#F2F2F2"/>
<path d="M216.206 200.064C216.205 200.224 216.142 200.377 216.03 200.49C215.974 200.546 215.908 200.59 215.836 200.619C215.763 200.649 215.685 200.665 215.607 200.664H213.198C213.119 200.665 213.041 200.649 212.968 200.619C212.895 200.589 212.829 200.545 212.773 200.489C212.717 200.433 212.673 200.367 212.643 200.294C212.613 200.221 212.598 200.143 212.598 200.064V127.111C212.598 125.503 212.059 124.198 211.396 124.195H30.8354C30.1701 124.198 29.6336 125.503 29.6306 127.111V199.617C29.6301 199.766 29.5744 199.91 29.4742 200.02C29.3739 200.131 29.2364 200.2 29.0882 200.214C28.6027 200.262 28.1172 200.304 27.6347 200.343C27.6227 200.343 27.6107 200.346 27.5987 200.346C27.335 200.37 27.0713 200.388 26.8075 200.409H26.8045C26.6667 200.16 26.5348 199.905 26.4 199.65C26.3567 199.564 26.3342 199.468 26.334 199.371V123.328C26.334 122.884 26.352 122.436 26.382 121.995C26.4247 121.39 26.4998 120.787 26.6067 120.189C27.1132 117.402 28.258 115.514 29.5587 115.508H212.67C212.86 115.51 213.047 115.549 213.221 115.625C213.477 115.739 213.708 115.901 213.902 116.102C214.165 116.376 214.389 116.684 214.57 117.018C215.211 118.149 215.67 119.835 215.832 121.797C215.832 121.815 215.835 121.833 215.835 121.851C215.877 122.337 215.898 122.833 215.895 123.328L215.937 129.758L215.964 133.592L216.045 145.624L216.075 149.897L216.206 200.064Z" fill="#E6E6E6"/>
<path d="M232.141 201.406L149.501 201.498C149.407 201.498 149.316 201.46 149.25 201.393C149.183 201.326 149.146 201.235 149.146 201.141C149.146 201.046 149.183 200.955 149.25 200.888C149.316 200.821 149.407 200.784 149.501 200.783L232.141 200.691C232.236 200.692 232.326 200.729 232.393 200.796C232.459 200.863 232.497 200.954 232.497 201.049C232.497 201.143 232.459 201.234 232.393 201.301C232.326 201.368 232.236 201.405 232.141 201.406Z" fill="#CACACA"/>
<path d="M129.566 94.1914H114.93C114.723 94.1917 114.524 94.2743 114.378 94.4211C114.232 94.5679 114.15 94.7668 114.15 94.974V118.123H130.348V94.974C130.348 94.8713 130.328 94.7694 130.289 94.6745C130.249 94.5795 130.192 94.4932 130.119 94.4205C130.047 94.3478 129.96 94.2901 129.865 94.2508C129.771 94.2115 129.669 94.1913 129.566 94.1914ZM122.297 107.344C121.84 107.342 121.401 107.159 121.078 106.835C120.754 106.511 120.571 106.072 120.569 105.614V102.944C120.569 102.485 120.751 102.045 121.075 101.72C121.399 101.396 121.839 101.214 122.297 101.214C122.756 101.214 123.195 101.396 123.519 101.72C123.844 102.045 124.026 102.485 124.026 102.944V105.614C124.023 106.072 123.841 106.511 123.517 106.835C123.193 107.159 122.755 107.342 122.297 107.344Z" fill="#767676"/>
<path d="M153.804 58.0664H91.2387C90.7011 58.0673 90.1859 58.2814 89.8058 58.662C89.4257 59.0425 89.2118 59.5584 89.2109 60.0966V102.366C89.2114 102.904 89.4252 103.42 89.8054 103.801C90.1856 104.181 90.701 104.395 91.2387 104.396H153.804C154.341 104.395 154.857 104.181 155.237 103.801C155.617 103.42 155.831 102.904 155.832 102.366V60.0966C155.831 59.5584 155.617 59.0425 155.237 58.662C154.857 58.2814 154.341 58.0673 153.804 58.0664Z" fill="#4F5E64"/>
<path d="M153.279 59.5312H91.7602C91.4724 59.5319 91.1966 59.6467 90.9933 59.8507C90.79 60.0546 90.6758 60.3311 90.6758 60.6192V101.841C90.6763 102.129 90.7907 102.405 90.9939 102.608C91.1972 102.812 91.4727 102.926 91.7602 102.927H153.279C153.567 102.926 153.842 102.812 154.046 102.608C154.249 102.405 154.363 102.129 154.364 101.841V60.6192C154.364 60.3311 154.25 60.0546 154.046 59.8507C153.843 59.6467 153.567 59.5319 153.279 59.5312Z" fill="white"/>
<path d="M114.1 117.383V119.617C114.1 119.732 114.146 119.843 114.228 119.925C114.31 120.007 114.42 120.053 114.536 120.053H129.962C130.078 120.053 130.188 120.007 130.27 119.925C130.352 119.843 130.398 119.732 130.398 119.617V117.383H114.1Z" fill="#4F5E64"/>
<path d="M141.298 120.829H104.697C104.596 120.829 104.497 120.807 104.407 120.764C104.317 120.721 104.237 120.658 104.174 120.58C104.111 120.502 104.066 120.411 104.042 120.314C104.019 120.216 104.017 120.115 104.038 120.017L104.606 117.316C104.638 117.165 104.721 117.029 104.841 116.932C104.961 116.835 105.11 116.781 105.264 116.781H140.73C140.884 116.781 141.033 116.835 141.153 116.932C141.273 117.029 141.356 117.165 141.388 117.316L141.956 120.017C141.977 120.115 141.975 120.216 141.952 120.314C141.928 120.411 141.883 120.502 141.82 120.58C141.757 120.658 141.678 120.721 141.587 120.764C141.497 120.807 141.398 120.829 141.298 120.829Z" fill="#767676"/>
<path d="M106.504 117.27H105.67C105.589 117.27 105.523 117.336 105.523 117.417V117.801C105.523 117.882 105.589 117.947 105.67 117.947H106.504C106.585 117.947 106.651 117.882 106.651 117.801V117.417C106.651 117.336 106.585 117.27 106.504 117.27Z" fill="#4F5E64"/>
<path d="M108.76 117.27H107.925C107.844 117.27 107.779 117.336 107.779 117.417V117.801C107.779 117.882 107.844 117.947 107.925 117.947H108.76C108.841 117.947 108.906 117.882 108.906 117.801V117.417C108.906 117.336 108.841 117.27 108.76 117.27Z" fill="#4F5E64"/>
<path d="M111.014 117.27H110.18C110.099 117.27 110.033 117.336 110.033 117.417V117.801C110.033 117.882 110.099 117.947 110.18 117.947H111.014C111.095 117.947 111.161 117.882 111.161 117.801V117.417C111.161 117.336 111.095 117.27 111.014 117.27Z" fill="#4F5E64"/>
<path d="M113.268 117.27H112.433C112.352 117.27 112.287 117.336 112.287 117.417V117.801C112.287 117.882 112.352 117.947 112.433 117.947H113.268C113.349 117.947 113.414 117.882 113.414 117.801V117.417C113.414 117.336 113.349 117.27 113.268 117.27Z" fill="#4F5E64"/>
<path d="M115.524 117.27H114.69C114.609 117.27 114.543 117.336 114.543 117.417V117.801C114.543 117.882 114.609 117.947 114.69 117.947H115.524C115.605 117.947 115.671 117.882 115.671 117.801V117.417C115.671 117.336 115.605 117.27 115.524 117.27Z" fill="#4F5E64"/>
<path d="M117.778 117.27H116.943C116.863 117.27 116.797 117.336 116.797 117.417V117.801C116.797 117.882 116.863 117.947 116.943 117.947H117.778C117.859 117.947 117.924 117.882 117.924 117.801V117.417C117.924 117.336 117.859 117.27 117.778 117.27Z" fill="#4F5E64"/>
<path d="M120.034 117.27H119.199C119.118 117.27 119.053 117.336 119.053 117.417V117.801C119.053 117.882 119.118 117.947 119.199 117.947H120.034C120.114 117.947 120.18 117.882 120.18 117.801V117.417C120.18 117.336 120.114 117.27 120.034 117.27Z" fill="#4F5E64"/>
<path d="M122.288 117.27H121.453C121.373 117.27 121.307 117.336 121.307 117.417V117.801C121.307 117.882 121.373 117.947 121.453 117.947H122.288C122.369 117.947 122.434 117.882 122.434 117.801V117.417C122.434 117.336 122.369 117.27 122.288 117.27Z" fill="#4F5E64"/>
<path d="M124.542 117.27H123.707C123.626 117.27 123.561 117.336 123.561 117.417V117.801C123.561 117.882 123.626 117.947 123.707 117.947H124.542C124.622 117.947 124.688 117.882 124.688 117.801V117.417C124.688 117.336 124.622 117.27 124.542 117.27Z" fill="#4F5E64"/>
<path d="M126.795 117.27H125.96C125.88 117.27 125.814 117.336 125.814 117.417V117.801C125.814 117.882 125.88 117.947 125.96 117.947H126.795C126.876 117.947 126.941 117.882 126.941 117.801V117.417C126.941 117.336 126.876 117.27 126.795 117.27Z" fill="#4F5E64"/>
<path d="M129.051 117.27H128.216C128.135 117.27 128.07 117.336 128.07 117.417V117.801C128.07 117.882 128.135 117.947 128.216 117.947H129.051C129.132 117.947 129.197 117.882 129.197 117.801V117.417C129.197 117.336 129.132 117.27 129.051 117.27Z" fill="#4F5E64"/>
<path d="M131.305 117.27H130.471C130.39 117.27 130.324 117.336 130.324 117.417V117.801C130.324 117.882 130.39 117.947 130.471 117.947H131.305C131.386 117.947 131.452 117.882 131.452 117.801V117.417C131.452 117.336 131.386 117.27 131.305 117.27Z" fill="#4F5E64"/>
<path d="M133.559 117.27H132.724C132.643 117.27 132.578 117.336 132.578 117.417V117.801C132.578 117.882 132.643 117.947 132.724 117.947H133.559C133.64 117.947 133.705 117.882 133.705 117.801V117.417C133.705 117.336 133.64 117.27 133.559 117.27Z" fill="#4F5E64"/>
<path d="M135.815 117.27H134.981C134.9 117.27 134.834 117.336 134.834 117.417V117.801C134.834 117.882 134.9 117.947 134.981 117.947H135.815C135.896 117.947 135.962 117.882 135.962 117.801V117.417C135.962 117.336 135.896 117.27 135.815 117.27Z" fill="#4F5E64"/>
<path d="M138.069 117.27H137.234C137.153 117.27 137.088 117.336 137.088 117.417V117.801C137.088 117.882 137.153 117.947 137.234 117.947H138.069C138.15 117.947 138.215 117.882 138.215 117.801V117.417C138.215 117.336 138.15 117.27 138.069 117.27Z" fill="#4F5E64"/>
<path d="M140.324 117.27H139.49C139.409 117.27 139.344 117.336 139.344 117.417V117.801C139.344 117.882 139.409 117.947 139.49 117.947H140.324C140.405 117.947 140.471 117.882 140.471 117.801V117.417C140.471 117.336 140.405 117.27 140.324 117.27Z" fill="#4F5E64"/>
<path d="M106.479 118.398H105.644C105.563 118.398 105.498 118.463 105.498 118.544V118.928C105.498 119.009 105.563 119.075 105.644 119.075H106.479C106.559 119.075 106.625 119.009 106.625 118.928V118.544C106.625 118.463 106.559 118.398 106.479 118.398Z" fill="#4F5E64"/>
<path d="M108.733 118.398H107.898C107.818 118.398 107.752 118.463 107.752 118.544V118.928C107.752 119.009 107.818 119.075 107.898 119.075H108.733C108.814 119.075 108.879 119.009 108.879 118.928V118.544C108.879 118.463 108.814 118.398 108.733 118.398Z" fill="#4F5E64"/>
<path d="M110.989 118.398H110.154C110.073 118.398 110.008 118.463 110.008 118.544V118.928C110.008 119.009 110.073 119.075 110.154 119.075H110.989C111.07 119.075 111.135 119.009 111.135 118.928V118.544C111.135 118.463 111.07 118.398 110.989 118.398Z" fill="#4F5E64"/>
<path d="M113.243 118.398H112.409C112.328 118.398 112.262 118.463 112.262 118.544V118.928C112.262 119.009 112.328 119.075 112.409 119.075H113.243C113.324 119.075 113.39 119.009 113.39 118.928V118.544C113.39 118.463 113.324 118.398 113.243 118.398Z" fill="#4F5E64"/>
<path d="M115.497 118.398H114.662C114.581 118.398 114.516 118.463 114.516 118.544V118.928C114.516 119.009 114.581 119.075 114.662 119.075H115.497C115.578 119.075 115.643 119.009 115.643 118.928V118.544C115.643 118.463 115.578 118.398 115.497 118.398Z" fill="#4F5E64"/>
<path d="M117.751 118.398H116.917C116.836 118.398 116.77 118.463 116.77 118.544V118.928C116.77 119.009 116.836 119.075 116.917 119.075H117.751C117.832 119.075 117.898 119.009 117.898 118.928V118.544C117.898 118.463 117.832 118.398 117.751 118.398Z" fill="#4F5E64"/>
<path d="M120.006 118.398H119.171C119.091 118.398 119.025 118.463 119.025 118.544V118.928C119.025 119.009 119.091 119.075 119.171 119.075H120.006C120.087 119.075 120.152 119.009 120.152 118.928V118.544C120.152 118.463 120.087 118.398 120.006 118.398Z" fill="#4F5E64"/>
<path d="M122.259 118.398H121.425C121.344 118.398 121.279 118.463 121.279 118.544V118.928C121.279 119.009 121.344 119.075 121.425 119.075H122.259C122.34 119.075 122.406 119.009 122.406 118.928V118.544C122.406 118.463 122.34 118.398 122.259 118.398Z" fill="#4F5E64"/>
<path d="M124.514 118.398H123.679C123.599 118.398 123.533 118.463 123.533 118.544V118.928C123.533 119.009 123.599 119.075 123.679 119.075H124.514C124.595 119.075 124.66 119.009 124.66 118.928V118.544C124.66 118.463 124.595 118.398 124.514 118.398Z" fill="#4F5E64"/>
<path d="M126.77 118.398H125.935C125.854 118.398 125.789 118.463 125.789 118.544V118.928C125.789 119.009 125.854 119.075 125.935 119.075H126.77C126.85 119.075 126.916 119.009 126.916 118.928V118.544C126.916 118.463 126.85 118.398 126.77 118.398Z" fill="#4F5E64"/>
<path d="M129.024 118.398H128.189C128.109 118.398 128.043 118.463 128.043 118.544V118.928C128.043 119.009 128.109 119.075 128.189 119.075H129.024C129.105 119.075 129.17 119.009 129.17 118.928V118.544C129.17 118.463 129.105 118.398 129.024 118.398Z" fill="#4F5E64"/>
<path d="M131.28 118.398H130.445C130.364 118.398 130.299 118.463 130.299 118.544V118.928C130.299 119.009 130.364 119.075 130.445 119.075H131.28C131.36 119.075 131.426 119.009 131.426 118.928V118.544C131.426 118.463 131.36 118.398 131.28 118.398Z" fill="#4F5E64"/>
<path d="M133.534 118.398H132.7C132.619 118.398 132.553 118.463 132.553 118.544V118.928C132.553 119.009 132.619 119.075 132.7 119.075H133.534C133.615 119.075 133.68 119.009 133.68 118.928V118.544C133.68 118.463 133.615 118.398 133.534 118.398Z" fill="#4F5E64"/>
<path d="M135.788 118.398H134.953C134.872 118.398 134.807 118.463 134.807 118.544V118.928C134.807 119.009 134.872 119.075 134.953 119.075H135.788C135.869 119.075 135.934 119.009 135.934 118.928V118.544C135.934 118.463 135.869 118.398 135.788 118.398Z" fill="#4F5E64"/>
<path d="M138.042 118.398H137.208C137.127 118.398 137.061 118.463 137.061 118.544V118.928C137.061 119.009 137.127 119.075 137.208 119.075H138.042C138.123 119.075 138.189 119.009 138.189 118.928V118.544C138.189 118.463 138.123 118.398 138.042 118.398Z" fill="#4F5E64"/>
<path d="M140.297 118.398H139.462C139.381 118.398 139.316 118.463 139.316 118.544V118.928C139.316 119.009 139.381 119.075 139.462 119.075H140.297C140.378 119.075 140.443 119.009 140.443 118.928V118.544C140.443 118.463 140.378 118.398 140.297 118.398Z" fill="#4F5E64"/>
<path d="M125.191 119.75H116.466C116.385 119.75 116.32 119.816 116.32 119.896V120.281C116.32 120.362 116.385 120.427 116.466 120.427H125.191C125.272 120.427 125.338 120.362 125.338 120.281V119.896C125.338 119.816 125.272 119.75 125.191 119.75Z" fill="#4F5E64"/>
<path d="M150.188 65.2122H92.6246C92.5647 65.211 92.5077 65.1863 92.4658 65.1434C92.4239 65.1006 92.4004 65.043 92.4004 64.983C92.4004 64.9231 92.4239 64.8655 92.4658 64.8226C92.5077 64.7798 92.5647 64.7551 92.6246 64.7539H150.188C150.248 64.7551 150.305 64.7798 150.347 64.8226C150.389 64.8655 150.412 64.9231 150.412 64.983C150.412 65.043 150.389 65.1006 150.347 65.1434C150.305 65.1863 150.248 65.211 150.188 65.2122Z" fill="#CACACA"/>
<path d="M96.5428 63.5821C97.2837 63.5821 97.8844 62.9673 97.8844 62.209C97.8844 61.4507 97.2837 60.8359 96.5428 60.8359C95.8019 60.8359 95.2012 61.4507 95.2012 62.209C95.2012 62.9673 95.8019 63.5821 96.5428 63.5821Z" fill="#4F5E64"/>
<path d="M101.177 63.5821C101.918 63.5821 102.519 62.9673 102.519 62.209C102.519 61.4507 101.918 60.8359 101.177 60.8359C100.437 60.8359 99.8359 61.4507 99.8359 62.209C99.8359 62.9673 100.437 63.5821 101.177 63.5821Z" fill="#4F5E64"/>
<path d="M105.812 63.5821C106.553 63.5821 107.154 62.9673 107.154 62.209C107.154 61.4507 106.553 60.8359 105.812 60.8359C105.072 60.8359 104.471 61.4507 104.471 62.209C104.471 62.9673 105.072 63.5821 105.812 63.5821Z" fill="#4F5E64"/>
<path d="M147.398 61.1797H144.106C144.04 61.181 143.978 61.2078 143.933 61.2545C143.887 61.3011 143.861 61.3639 143.861 61.4292C143.861 61.4946 143.887 61.5573 143.933 61.604C143.978 61.6506 144.04 61.6775 144.106 61.6788H147.398C147.463 61.6775 147.525 61.6506 147.571 61.604C147.616 61.5573 147.642 61.4946 147.642 61.4292C147.642 61.3639 147.616 61.3011 147.571 61.2545C147.525 61.2078 147.463 61.181 147.398 61.1797Z" fill="#4F5E64"/>
<path d="M147.398 62.1133H144.106C144.04 62.1146 143.978 62.1415 143.933 62.1882C143.887 62.2348 143.861 62.2976 143.861 62.3629C143.861 62.4282 143.887 62.491 143.933 62.5376C143.978 62.5843 144.04 62.6112 144.106 62.6125H147.398C147.463 62.6112 147.525 62.5843 147.571 62.5376C147.616 62.491 147.642 62.4282 147.642 62.3629C147.642 62.2976 147.616 62.2348 147.571 62.1882C147.525 62.1415 147.463 62.1146 147.398 62.1133Z" fill="#4F5E64"/>
<path d="M147.398 63.0508H144.106C144.04 63.0521 143.978 63.079 143.933 63.1256C143.887 63.1723 143.861 63.235 143.861 63.3004C143.861 63.3657 143.887 63.4284 143.933 63.4751C143.978 63.5218 144.04 63.5486 144.106 63.5499H147.398C147.463 63.5486 147.525 63.5218 147.571 63.4751C147.616 63.4284 147.642 63.3657 147.642 63.3004C147.642 63.235 147.616 63.1723 147.571 63.1256C147.525 63.079 147.463 63.0521 147.398 63.0508Z" fill="#4F5E64"/>
<path d="M126.005 78.6016H118.812C118.272 78.6016 117.834 79.0401 117.834 79.581C117.834 80.1219 118.272 80.5604 118.812 80.5604H126.005C126.546 80.5604 126.984 80.1219 126.984 79.581C126.984 79.0401 126.546 78.6016 126.005 78.6016Z" fill="black"/>
<path d="M130.651 82.5195H114.165C113.625 82.5195 113.188 82.958 113.188 83.4989C113.188 84.0398 113.625 84.4783 114.165 84.4783H130.651C131.191 84.4783 131.63 84.0398 131.63 83.4989C131.63 82.958 131.191 82.5195 130.651 82.5195Z" fill="#E6E6E6"/>
<path d="M130.651 86.4375H114.165C113.625 86.4375 113.188 86.876 113.188 87.4169C113.188 87.9578 113.625 88.3963 114.165 88.3963H130.651C131.191 88.3963 131.63 87.9578 131.63 87.4169C131.63 86.876 131.191 86.4375 130.651 86.4375Z" fill="#E6E6E6"/>
<path d="M93.1856 123.777H75.2042C74.5683 123.777 73.9585 124.03 73.5089 124.48C73.0592 124.93 72.8066 125.54 72.8066 126.177C72.8066 126.814 73.0592 127.424 73.5089 127.874C73.9585 128.324 74.5683 128.577 75.2042 128.577H81.7974V147.18H86.5924V128.577H93.1856C93.8215 128.577 94.4313 128.324 94.8809 127.874C95.3305 127.424 95.5832 126.814 95.5832 126.177C95.5832 125.54 95.3305 124.93 94.8809 124.48C94.4313 124.03 93.8215 123.777 93.1856 123.777Z" fill="#4F5E64"/>
<path d="M105.053 157.483H56.9584C52.2958 157.466 47.795 155.77 44.278 152.705C40.7611 149.64 38.4629 145.411 37.8032 140.79L36.1007 134.52C32.577 121.528 27.2097 109.109 20.1628 97.6438C16.9419 92.4069 15.2841 87.3376 19.0495 82.457C19.0816 82.4154 19.1131 82.3744 19.1441 82.334C22.1641 78.3986 37.1958 77.5466 42.096 77.3809C42.2896 77.3743 42.484 77.3711 42.679 77.3711H72.5938C72.789 77.3711 72.9833 77.3744 73.1767 77.3809C75.8183 77.458 78.3898 78.2497 80.6184 79.6718C82.8469 81.0939 84.6494 83.0935 85.8345 85.4584C87.0991 87.8729 87.6872 90.5851 87.5365 93.3073C87.3858 96.0294 86.5019 98.6599 84.9786 100.919C74.4704 116.723 71.2531 126.632 74.5469 133.05C77.733 139.257 87.4996 142.43 105.283 143.037C110.062 143.2 112.255 146.925 112.27 150.318C112.285 153.623 110.176 157.272 105.511 157.473C105.36 157.48 105.207 157.483 105.053 157.483Z" fill="#4F5E64"/>
<path d="M65.1299 200.241H83.1114C83.7472 200.241 84.3571 199.988 84.8067 199.538C85.2563 199.088 85.5089 198.478 85.5089 197.841C85.5089 197.204 85.2563 196.594 84.8067 196.144C84.3571 195.693 83.7472 195.441 83.1114 195.441H76.5182V154.934H71.7231V195.441H65.1299C64.4941 195.441 63.8843 195.693 63.4346 196.144C62.985 196.594 62.7324 197.204 62.7324 197.841C62.7324 198.478 62.985 199.088 63.4346 199.538C63.8843 199.988 64.4941 200.241 65.1299 200.241Z" fill="#4F5E64"/>
<path d="M63.694 78.8734L64.0709 81.1667C64.2492 82.2786 64.8949 90.1338 64.4166 91.0709C64.3744 89.3212 61.12 86.5702 59.0113 87.1983L55.702 87.9345L53.6481 88.392L51.9764 88.759L47.1187 89.8215C47.1102 89.7651 47.104 89.7051 47.0956 89.6486C47.0841 89.5775 47.0726 89.5063 47.0582 89.4358C46.9677 88.9797 46.8028 88.5416 46.5699 88.1392C46.5452 88.6782 46.3863 89.2024 46.1076 89.6642C46.1 89.6762 46.0934 89.6888 46.0878 89.702C46.0015 89.8418 45.9063 89.9758 45.8028 90.1034C45.798 90.1067 45.7936 90.1107 45.7899 90.1152C45.7899 90.1152 44.7918 74.1858 44.8963 74.0388C44.9729 73.9343 45.05 73.8327 45.1307 73.7335C45.2107 73.6313 45.2885 73.5327 45.3721 73.4329C45.3828 73.4234 45.3919 73.4123 45.399 73.3998C45.6331 73.1224 45.881 72.8569 46.1419 72.6045C46.2185 72.5306 46.2981 72.4561 46.3777 72.3816C47.593 71.2558 49.045 70.4173 50.6269 69.9277C50.8053 69.8728 50.9908 69.8225 51.1792 69.7717C51.3653 69.7244 51.555 69.6794 51.7458 69.6403L51.8104 69.6271C51.9015 69.6084 51.996 69.5921 52.0876 69.5764C52.2027 69.5559 52.3184 69.5383 52.4318 69.5243C53.9036 69.312 55.4029 69.3964 56.8416 69.7724C56.8445 69.7718 56.8451 69.7747 56.8481 69.7741C58.0491 70.0884 59.1905 70.5973 60.2272 71.2808C62.0204 72.4662 62.7184 74.3997 63.2141 76.5706C63.3879 77.316 63.5342 78.0915 63.694 78.8734Z" fill="#05264E"/>
<path d="M81.4043 183.911L84.5019 185.596L92.702 174.245L88.13 171.758L81.4043 183.911Z" fill="#FFB6B6"/>
<path d="M82.8955 179.863L88.5189 181.626L87.6239 183.985L91.4799 189.588C91.6704 189.865 91.7676 190.195 91.7572 190.531C91.7468 190.867 91.6295 191.191 91.4223 191.456C91.2151 191.72 90.9289 191.911 90.6055 192.001C90.2821 192.091 89.9384 192.075 89.6246 191.956L83.0782 189.466L82.8351 186.704L81.5092 188.869L79.041 187.93L82.8955 179.863Z" fill="#767676"/>
<path d="M98.951 133.137C98.4566 133.258 97.9418 133.268 97.4428 133.168C96.9439 133.068 96.473 132.859 96.0633 132.557C95.6536 132.255 95.315 131.867 95.0714 131.419C94.8279 130.972 94.6852 130.477 94.6535 129.968L68.2324 120.452L73.0812 116.227L98.1587 126.224C99.0154 126.227 99.8411 126.545 100.479 127.117C101.118 127.689 101.524 128.476 101.622 129.328C101.72 130.18 101.502 131.039 101.01 131.741C100.517 132.443 99.7847 132.94 98.951 133.137Z" fill="#FFB6B6"/>
<path d="M60.8515 96.8789C60.8515 96.8789 56.4016 96.9771 56.0059 102.063C55.6103 107.149 65.32 119.731 66.8244 121.806C68.3287 123.881 85.0386 126.434 85.0386 126.434L90.7189 122.305C84.7503 118.433 79.3031 115.464 75.6474 115.598L60.8515 96.8789Z" fill="black"/>
<path d="M55.3926 119.321L56.4769 123.986C56.4769 123.986 56.4876 128.287 57.2484 129.08C58.0039 129.869 74.6171 128.284 74.6171 128.284C74.6171 128.284 72.8557 121.353 72.8791 116.109L55.3926 119.321Z" fill="#FFB6B6"/>
<path d="M90.4886 178.986L84.4948 175.686C84.3808 167.877 89.072 157.31 94.6362 146.241C82.1922 148.384 70.4523 149.07 60.2979 146.478C58.6309 146.038 57.204 144.958 56.3256 143.472C55.4473 141.987 55.1881 140.215 55.6039 138.54C55.6434 138.375 55.6891 138.213 55.741 138.052C56.9563 134.339 54.2313 132.012 56.7377 127.929C63.3298 125.675 69.592 125.039 75.3185 127.029L78.9065 134.972L96.6909 132.668C97.5501 132.565 98.4212 132.633 99.2539 132.869C100.087 133.105 100.865 133.503 101.543 134.041C102.221 134.58 102.786 135.247 103.206 136.005C103.625 136.762 103.891 137.596 103.987 138.457C104.011 138.65 104.026 138.844 104.034 139.039C100.437 155.917 96.4051 171.104 90.4886 178.986Z" fill="#767676"/>
<path d="M56.2166 87.0872C60.2388 86.2632 62.8323 82.3307 62.0093 78.3036C61.1863 74.2766 57.2584 71.68 53.2361 72.5041C49.2138 73.3281 46.6203 77.2606 47.4434 81.2876C48.2664 85.3146 52.1943 87.9112 56.2166 87.0872Z" fill="#FFB6B6"/>
<path d="M52.9792 89.7902L59.8305 89.3852C60.1194 89.3681 60.4064 89.4417 60.6516 89.5957C60.8968 89.7497 61.0879 89.9764 61.1982 90.2443L63.1344 94.9435L71.1811 101.603C71.1811 101.603 74.367 105.662 74.3744 110.904C74.3819 116.146 75.5048 128.279 75.5048 128.279C75.5048 128.279 70.8551 121.727 67.9852 123.47C67.4969 123.766 67.3252 124.372 66.8138 124.679C66.5587 124.832 65.9693 124.683 65.7116 124.836C61.757 127.187 57.6327 129.483 57.2473 129.08C56.4907 128.29 55.5728 124.25 55.5728 124.25L49.3014 101.181C48.9614 99.9662 48.8939 98.6921 49.1037 97.4491C49.3135 96.2061 49.7955 95.025 50.515 93.9904C50.9531 93.3728 51.4122 92.9134 51.8388 92.8374C52.7966 92.6332 52.2871 90.4839 52.9792 89.7902Z" fill="black"/>
<path d="M111.26 193.681L114.152 191.668L107.6 179.293L103.332 182.264L111.26 193.681Z" fill="#FFB6B6"/>
<path d="M111.697 185.378L107.164 189.434C99.9576 181.394 94.5094 170.118 89.8923 157.313C77.795 153.766 68.6721 148.045 60.7079 141.253C58.006 138.964 55.9807 136.024 58.285 133.235C58.3927 133.105 58.5052 132.979 58.6224 132.857C61.3431 130.058 68.2427 130.591 72.2837 128.027L81.3108 137.687L80.743 140.277L97.6987 146.027C98.5146 146.313 99.2656 146.759 99.9088 147.337C100.552 147.915 101.074 148.615 101.446 149.397C101.817 150.178 102.031 151.026 102.073 151.89C102.116 152.755 101.988 153.619 101.695 154.434C101.631 154.618 101.56 154.799 101.481 154.977L111.697 185.378Z" fill="#767676"/>
<path d="M109.572 192.865L114.202 189.215L115.64 191.287L122.437 191.266C122.772 191.265 123.1 191.372 123.371 191.57C123.642 191.768 123.842 192.048 123.943 192.369C124.044 192.689 124.04 193.034 123.932 193.352C123.823 193.67 123.616 193.945 123.34 194.136L117.59 198.138L115.176 196.779L116.212 199.097L114.044 200.606L109.572 192.865Z" fill="#767676"/>
<path d="M63.0951 147.928C62.6267 147.729 62.2076 147.43 61.8673 147.051C61.527 146.672 61.2737 146.223 61.1254 145.736C60.9771 145.249 60.9374 144.735 61.0089 144.23C61.0805 143.726 61.2616 143.243 61.5396 142.817L46.0293 119.382L52.4386 118.895L66.5848 141.91C67.2698 142.425 67.7424 143.174 67.9128 144.015C68.0833 144.855 67.9399 145.729 67.5098 146.471C67.0796 147.213 66.3926 147.771 65.579 148.039C64.7653 148.308 63.8816 148.268 63.0951 147.928Z" fill="#FFB6B6"/>
<path d="M54.179 96.0602C54.179 96.0602 50.5518 93.4775 47.1996 97.3199C43.8474 101.163 44.1273 117.059 44.0958 119.623C44.0859 120.426 45.2437 122.158 46.8389 124.158C47.555 125.057 48.3593 126.009 49.1857 126.956C49.6639 127.504 49.2518 128.644 49.732 129.176C50.2095 129.706 51.5793 129.628 52.0336 130.119C54.1896 132.452 55.9411 134.228 55.9411 134.228L62.96 134.315C63.0391 129.091 59.466 124.428 54.8756 119.921L54.179 96.0602Z" fill="black"/>
<path d="M64.0181 76.1784C63.743 76.3143 63.4762 76.4456 63.214 76.5697C62.1621 77.0874 61.075 77.5302 59.9608 77.8947C59.7754 77.3898 59.4925 76.9263 59.1284 76.5308C59.2216 77.077 59.1741 77.6381 58.9904 78.1608C57.3039 78.579 55.5336 78.5106 53.8844 77.9634C54.9629 79.9629 55.7598 84.1761 55.7018 87.9336C55.6766 89.9203 55.408 91.7792 54.8214 93.1152L54.0678 90.8195C53.9979 89.9995 53.8574 89.187 53.6479 88.3911C53.1426 86.1579 52.6707 87.6511 51.9762 88.7581L47.1185 89.8206C47.11 89.7642 47.1039 89.7042 47.0954 89.6477C47.0839 89.5766 47.0724 89.5054 47.058 89.4349C46.9676 88.9788 46.8026 88.5407 46.5697 88.1384C46.5451 88.6773 46.3862 89.2015 46.1075 89.6633C46.0998 89.6753 46.0932 89.688 46.0877 89.7011C46.0014 89.8409 45.9062 89.9749 45.8026 90.1025C45.7978 90.1058 45.7935 90.1098 45.7897 90.1143C42.6535 90.5345 40.4549 74.3421 44.8968 74.0408C45.0259 74.032 45.0504 73.8348 45.1305 73.7326C45.2106 73.6305 45.2883 73.5318 45.3719 73.432C45.3826 73.4225 45.3917 73.4114 45.3988 73.399C45.6362 73.1237 45.8819 72.859 46.1417 72.6036C46.2184 72.5297 46.298 72.4552 46.3776 72.3807C47.5966 71.2604 49.0478 70.4235 50.6273 69.9298C50.8057 69.8748 50.9906 69.8217 51.1791 69.7708C51.3652 69.7235 51.5548 69.6785 51.7457 69.6394L51.8103 69.6262C51.9013 69.6075 51.9958 69.5912 52.0875 69.5755C52.2025 69.555 52.3183 69.5374 52.4316 69.5234C52.8573 69.7382 53.2216 70.0577 53.4902 70.4519L56.5936 69.8162C56.6758 69.7993 56.7586 69.7854 56.842 69.7745L56.8479 69.7733C60.7224 69.1235 63.2136 72.2423 64.0181 76.1784Z" fill="#05264E"/>
<path d="M47.1032 73.3181C46.4387 73.7983 45.7396 74.293 44.9288 74.412C44.1179 74.531 43.1687 74.1385 42.9443 73.3494C42.6699 72.3845 43.5401 71.506 44.3223 70.8789L46.8025 68.8905C47.2567 68.4872 47.7694 68.1553 48.3232 67.9062C48.6013 67.7836 48.9034 67.7253 49.2071 67.7355C49.5108 67.7456 49.8083 67.824 50.0776 67.9649C50.3442 68.1451 50.5603 68.3907 50.7052 68.6781C50.8502 68.9656 50.9192 69.2855 50.9057 69.6072C50.8703 70.2521 50.6578 70.8746 50.2915 71.4062C49.8311 72.1247 49.2302 72.7425 48.5251 73.2224C47.8199 73.7023 47.0251 74.0344 46.1884 74.1987" fill="#05264E"/>
<path d="M65.9142 124.977H47.9327C47.2969 124.977 46.687 125.23 46.2374 125.68C45.7878 126.13 45.5352 126.741 45.5352 127.377C45.5352 128.014 45.7878 128.624 46.2374 129.075C46.687 129.525 47.2969 129.778 47.9327 129.778H54.5259V148.38H59.321V129.778H65.9142C66.55 129.778 67.1599 129.525 67.6095 129.075C68.0591 128.624 68.3117 128.014 68.3117 127.377C68.3117 126.741 68.0591 126.13 67.6095 125.68C67.1599 125.23 66.55 124.977 65.9142 124.977Z" fill="#4F5E64"/>
<path d="M132.345 201.11L0.855805 201.202C0.761345 201.202 0.670849 201.164 0.604152 201.097C0.537456 201.03 0.5 200.939 0.5 200.845C0.5 200.75 0.537456 200.659 0.604152 200.592C0.670849 200.525 0.761345 200.488 0.855805 200.487L132.345 200.395C132.44 200.395 132.53 200.433 132.597 200.5C132.663 200.567 132.701 200.658 132.701 200.752C132.701 200.847 132.663 200.938 132.597 201.005C132.53 201.072 132.44 201.109 132.345 201.11Z" fill="#CACACA"/>
<path d="M170.609 161.257L173.536 164.451L187.233 154.667L182.913 149.953L170.609 161.257Z" fill="#A0616A"/>
<path d="M176.667 165.776V165.773L176.371 162.584L176.236 162.521L175.447 162.145L171.728 160.384L171.65 160.3L170.904 159.484L166.771 163.283L172.37 169.392L176.209 173.58L176.338 173.46C176.864 172.978 177.29 172.396 177.591 171.748C177.892 171.101 178.063 170.4 178.094 169.687C178.124 168.973 178.014 168.26 177.769 167.589C177.525 166.918 177.15 166.302 176.667 165.776Z" fill="#767676"/>
<path d="M155.445 193.118L159.587 194.378L166.412 178.98L160.298 177.121L155.445 193.118Z" fill="#A0616A"/>
<path d="M166.171 196.564C165.837 195.932 165.381 195.374 164.83 194.92C164.278 194.467 163.642 194.128 162.958 193.923L161.079 191.328L160.932 191.34L155.967 191.796L155.856 191.763L154.801 191.442L153.17 196.816L166.528 200.878L166.579 200.707C166.787 200.024 166.858 199.306 166.788 198.595C166.718 197.884 166.509 197.193 166.171 196.564Z" fill="#767676"/>
<path d="M189.603 112.496C189.603 112.496 216.051 138.062 199.331 145.976H194.163C194.163 145.976 192.61 140.452 189.055 135.794C188.567 135.154 186.738 135.284 186.23 134.661C183.128 130.854 179.766 127.585 177.443 127.714L177.999 145.379L178.898 151.68C179.37 154.937 166.046 183.378 166.046 183.378L157.672 180.082C157.672 180.082 166.397 156.658 166.499 153.28L159.507 116.148L189.603 112.496Z" fill="#767676"/>
<path d="M191.81 113.756C191.675 113.949 191.499 114.109 191.294 114.224C190.957 114.415 190.592 114.551 190.212 114.626C184.257 115.979 164.804 118.785 159.755 117.447C159.134 117.285 158.73 117.057 158.598 116.757C158.175 115.808 158.229 111.803 158.478 106.966C158.523 106.06 159.521 105.079 159.581 104.131C159.623 103.42 158.727 102.75 158.775 102.027C159.104 97.1369 159.53 92.1532 159.815 89.0027C159.994 86.9774 160.117 85.7112 160.117 85.7112L157.045 66.3192L157.189 66.0822L157.351 66.0012L167.256 61.0925L167.795 59.7123C167.952 59.3149 168.223 58.9735 168.575 58.7323C168.927 58.4911 169.344 58.3611 169.77 58.3591L176.295 58.3321C176.633 58.3302 176.967 58.4093 177.269 58.5627C177.571 58.7161 177.832 58.9395 178.03 59.2142L179.798 61.6655L191.486 69.1667L191.441 69.3047L185.957 86.0142L185.93 87.3164V87.3194L185.726 97.791L186.292 99.2102L185.654 101.538C185.654 101.538 185.948 104.26 187.521 106.282C188.947 108.118 190.764 110.033 191.585 111.587V111.59C192.04 112.448 192.193 113.192 191.81 113.756Z" fill="black"/>
<path d="M200.601 144.458L199.187 146.247C199.187 146.247 186.186 155.353 185.739 156.205L183.685 158.151L178.713 152.83L181.298 149.586C183.367 146.989 186.041 144.94 189.084 143.618L193.047 140.098L200.601 144.458Z" fill="#767676"/>
<path d="M192.341 118.9L189.973 95.9555L189.348 86.5122L195.975 85.3125C195.975 85.3125 195.713 92.0647 196.581 95.8744C197.437 99.6337 196.694 118.396 196.641 118.898C197.128 119.334 197.471 119.907 197.625 120.542C197.779 121.178 197.737 121.845 197.504 122.455C197.272 123.066 196.859 123.592 196.322 123.962C195.784 124.333 195.147 124.532 194.494 124.532C193.841 124.533 193.203 124.335 192.665 123.964C192.127 123.594 191.714 123.069 191.481 122.458C191.248 121.848 191.205 121.181 191.358 120.545C191.512 119.91 191.854 119.336 192.341 118.9Z" fill="#A0616A"/>
<path d="M198.804 100.709L190.286 102.474L189.541 99.502L188.673 98.5798L186.938 89.4814L184.449 84.1517L185.096 65.9258L191.418 69.2825L191.426 69.2885C192.392 70.3393 193.059 71.8432 194.167 73.3523C197.658 78.1077 198.045 89.6628 197.94 95.992C197.938 96.0959 198.042 96.2056 198.168 96.321C198.762 96.8673 199.15 97.6023 199.266 98.4019C199.382 99.2014 199.219 100.016 198.804 100.709Z" fill="black"/>
<path d="M153.768 119.798L156.136 96.8539L156.761 87.4106L150.134 86.2109C150.134 86.2109 150.396 92.9631 149.528 96.7728C148.671 100.532 149.414 119.294 149.467 119.796C148.981 120.232 148.638 120.805 148.484 121.44C148.329 122.076 148.372 122.743 148.604 123.353C148.837 123.964 149.25 124.49 149.787 124.861C150.325 125.231 150.962 125.43 151.615 125.43C152.268 125.431 152.906 125.233 153.444 124.862C153.981 124.492 154.394 123.967 154.628 123.356C154.861 122.746 154.904 122.079 154.75 121.443C154.597 120.808 154.254 120.234 153.768 119.798Z" fill="#A0616A"/>
<path d="M161.66 85.0508L159.814 89.0054L159.169 90.3826L157.434 99.48L156.568 100.401L155.822 103.375L155.471 103.303L149.148 101.991L147.304 101.61C146.889 100.917 146.725 100.102 146.841 99.3022C146.957 98.5023 147.345 97.767 147.94 97.2206C148.066 97.1066 148.171 96.9956 148.168 96.8906C148.063 90.5626 148.449 79.0079 151.941 74.2521C153.049 72.7429 153.715 71.2397 154.683 70.1895C154.686 70.1865 154.686 70.1835 154.689 70.1835L157.044 66.3219L157.188 66.0849L157.35 66.0039L161.66 85.0508Z" fill="black"/>
<path d="M172.843 56.4759C177.637 56.4759 181.524 52.5848 181.524 47.7849C181.524 42.9849 177.637 39.0938 172.843 39.0938C168.049 39.0938 164.162 42.9849 164.162 47.7849C164.162 52.5848 168.049 56.4759 172.843 56.4759Z" fill="#A0616A"/>
<path d="M182.602 43.9713C182.572 42.489 182.404 40.5928 181.367 39.0805C180.492 37.8083 178.727 36.8002 177.082 37.3043C177.1 36.9749 177.027 36.6468 176.87 36.3565C176.714 36.0663 176.48 35.8252 176.195 35.66C175.571 35.2789 174.822 35.2099 174.16 35.1469C172.49 34.9909 170.761 34.8289 169.071 35.1499C167.174 35.51 165.622 36.4881 164.815 37.8353L164.797 37.8773L164.633 38.6755C164.611 38.7825 164.566 38.8835 164.501 38.9716C164.436 39.0596 164.353 39.1326 164.258 39.1855C164.162 39.2392 164.056 39.2711 163.947 39.2789C163.838 39.2867 163.728 39.2702 163.626 39.2306C163.514 39.1886 163.393 39.1765 163.275 39.1956C163.157 39.2147 163.046 39.2643 162.953 39.3394C162.86 39.4146 162.789 39.5127 162.745 39.6241C162.702 39.7355 162.688 39.8564 162.706 39.9747L162.751 40.2927L162.274 40.2027C162.154 40.1795 162.031 40.1887 161.916 40.2294C161.801 40.27 161.699 40.3406 161.621 40.4339C161.542 40.5272 161.49 40.6397 161.469 40.76C161.449 40.8802 161.461 41.0038 161.504 41.1178L161.636 41.4809C161.537 41.4822 161.44 41.5033 161.35 41.543C161.26 41.5827 161.179 41.6402 161.111 41.7119C161.015 41.8165 160.954 41.949 160.938 42.0903C160.922 42.2316 160.951 42.3744 161.021 42.4981C161.555 43.4108 162.312 44.1727 163.221 44.7124C163.63 44.9589 164.07 45.1477 164.531 45.2735C164.627 45.3005 164.725 45.3245 164.827 45.3455C168.507 46.1394 172.3 46.2533 176.021 45.6815C175.802 46.4164 175.717 47.1849 175.772 47.9499C175.892 48.907 176.452 49.6961 177.202 49.9602C177.371 50.0177 177.546 50.0599 177.723 50.0862C177.893 50.1138 178.06 50.1549 178.224 50.2092C178.465 50.2976 178.678 50.4482 178.842 50.6457C179.007 50.8432 179.116 51.0806 179.159 51.3339C179.202 51.5873 179.178 51.8475 179.088 52.0884C178.999 52.3292 178.847 52.5422 178.649 52.7056C178.649 52.7056 179.434 53.3567 179.533 53.3237C179.919 53.153 180.242 52.8655 180.456 52.5016C181.952 50.3472 182.674 47.4788 182.602 43.9713Z" fill="#05264E"/>
</g>
</g>
<defs>
<clipPath id="clip0_617_1663">
<rect width="232" height="201" fill="white" transform="translate(0.5 0.5)"/>
</clipPath>
</defs>
</svg>
