<svg width="214" height="171" viewBox="0 0 214 171" fill="none" xmlns="http://www.w3.org/2000/svg">
<g clip-path="url(#clip0_617_1755)">
<mask id="mask0_617_1755" style="mask-type:luminance" maskUnits="userSpaceOnUse" x="0" y="0" width="214" height="171">
<path d="M213.5 0.5H0.5V170.5H213.5V0.5Z" fill="white"/>
</mask>
<g mask="url(#mask0_617_1755)">
<path d="M142.821 37.7381C142.79 37.7434 142.743 37.7513 142.686 37.7607C141.578 37.9445 134.876 38.9799 128.12 36.4024C125.258 35.3105 126.234 35.0384 119.86 31.2422C112.386 26.7915 110.468 26.8226 109.912 24.7474C108.801 20.6034 114.735 14.0891 118.662 14.518C119.696 14.6309 120.804 15.2483 122.526 14.8297C122.904 14.7377 124.561 14.3351 125.369 12.9618C126.089 11.7368 125.479 10.8531 125.769 9.84834C126.529 7.21109 132.869 5.89496 138.427 6.82488C141.623 7.35973 144.11 8.81992 148.952 11.7185C157.38 16.7635 161.594 19.286 162.541 23.1507C163.439 26.8138 161.284 28.3922 162.851 32.3134C164.31 35.9645 166.628 35.7207 167.425 38.6743C168.709 43.4272 163.946 48.6435 161.962 50.8165C159.786 53.1989 157.706 54.5065 154.944 56.2423C151.477 58.4211 149.744 59.5105 147.66 59.3997C143.882 59.1988 132.654 59.8828 132.508 56.7515C132.453 55.578 118.836 56.5388 125.541 43.9046C126.363 42.355 142.474 44.0102 142.687 43.12" fill="#05264E"/>
<path d="M149.341 45.8203L160.922 63.1201L127.68 69.8527L129.797 48.194L149.341 45.8203Z" fill="#FFB6B6"/>
<path opacity="0.1" d="M149.341 45.8203L160.922 63.1201L127.68 69.8527L129.797 48.194L149.341 45.8203Z" fill="black"/>
<path d="M125.189 58.6328L161.043 57.1367L176.978 65.8642L176.231 121.97L192.913 153.638L108.756 137.679L115.229 113.741L112.242 63.3706L125.189 58.6328Z" fill="black"/>
<path d="M1.46559 167.628C0.320923 165.821 0.185741 163.589 1.10405 161.656L14.7502 132.941C15.7687 130.798 17.958 129.414 20.3279 129.414H192.689C194.993 129.414 197.089 130.683 198.159 132.726L212.786 160.65C213.797 162.58 213.731 164.847 212.608 166.714C211.486 168.582 209.517 169.701 207.34 169.71L6.70601 170.501H6.68089C4.55397 170.501 2.60561 169.428 1.46559 167.628Z" fill="white"/>
<path d="M1.46559 167.628C0.320923 165.821 0.185741 163.589 1.10405 161.656L14.7502 132.941C15.7687 130.798 17.958 129.414 20.3279 129.414H192.689C194.993 129.414 197.089 130.683 198.159 132.726L212.786 160.65C213.797 162.58 213.731 164.847 212.608 166.714C211.486 168.582 209.517 169.701 207.34 169.71L6.70601 170.501H6.68089C4.55397 170.501 2.60561 169.428 1.46559 167.628ZM20.3279 130.063C18.2068 130.063 16.2472 131.302 15.3357 133.22L1.68952 161.935C0.867559 163.665 0.988494 165.663 2.01307 167.281C3.03352 168.892 4.77716 169.852 6.68099 169.852H6.70347L207.338 169.061C209.286 169.053 211.048 168.051 212.053 166.379C213.057 164.708 213.117 162.679 212.212 160.952L197.585 133.028C196.628 131.199 194.752 130.063 192.689 130.063H20.3279Z" fill="#767676"/>
<path d="M176.642 159.522L105.513 154.624C104.463 154.552 103.626 153.843 103.38 152.818C103.134 151.793 103.558 150.78 104.461 150.238L120.189 140.786C120.589 140.546 121.047 140.43 121.511 140.452L183.037 143.253C183.85 143.29 184.577 143.734 184.981 144.443C185.384 145.151 185.397 146.004 185.015 146.724L178.889 158.272C178.478 159.047 177.672 159.527 176.804 159.527C176.751 159.527 176.696 159.525 176.642 159.522Z" fill="#767676"/>
<path d="M104.896 151.769L175.733 156.631L181.335 144.537L120.596 142.152L104.896 151.769Z" fill="white"/>
<path d="M139.756 51.6477C151.512 51.6477 161.042 42.1033 161.042 30.3297C161.042 18.5561 151.512 9.01172 139.756 9.01172C127.999 9.01172 118.469 18.5561 118.469 30.3297C118.469 42.1033 127.999 51.6477 139.756 51.6477Z" fill="#FFB6B6"/>
<path d="M146.612 31.7107C146.581 31.7161 146.534 31.724 146.477 31.7334C145.369 31.9171 138.667 32.9526 131.911 30.3751C129.049 29.2832 130.025 29.011 123.651 25.2148C116.177 20.7642 114.259 20.7953 113.703 18.7201C112.592 14.5761 118.526 8.06176 122.453 8.49067C123.487 8.60359 124.595 9.22099 126.317 8.80236C126.695 8.71038 128.352 8.30776 129.16 6.93449C129.88 5.70943 129.27 4.82572 129.56 3.821C130.32 1.18375 136.66 -0.132381 142.218 0.797535C145.414 1.33239 147.901 2.79258 152.743 5.69112C161.171 10.7361 165.385 13.2586 166.332 17.1234C167.23 20.7865 165.075 22.3648 166.642 26.2861C168.101 29.9372 170.419 29.6933 171.216 32.6469C172.5 37.3998 167.737 42.6162 165.753 44.7892C163.577 47.1716 161.497 48.4792 158.735 50.215C155.268 52.3938 153.535 53.4832 151.451 53.3724C147.673 53.1714 143.914 49.7423 143.768 46.6109C143.713 45.4374 144.202 45.0855 145.412 41.0512C145.916 39.3704 146.265 37.9829 146.478 37.0927" fill="#05264E"/>
<path d="M161.199 145.927C162.569 145.981 163.611 147.21 163.687 148.542C163.765 149.923 162.806 151.196 161.653 151.854C160.303 152.625 158.617 152.749 157.097 152.616C155.73 152.497 154.242 152.071 153.362 150.94C152.621 149.988 152.349 148.551 152.979 147.471C153.603 146.4 154.931 146.104 156.042 146.534C157.217 146.988 157.956 148.059 157.964 149.324C157.972 150.727 157.163 152.023 156.028 152.798C154.804 153.634 153.263 153.903 151.806 153.9C150.219 153.896 148.638 153.563 147.178 152.943C145.809 152.362 144.442 151.525 143.464 150.388C142.547 149.321 141.998 147.842 142.507 146.458C142.924 145.324 143.979 144.628 145.188 144.724C146.294 144.812 147.413 145.455 147.904 146.479C148.458 147.634 148.209 149.019 147.504 150.052C146.69 151.244 145.403 151.914 143.974 152.011C142.454 152.114 140.948 151.573 139.697 150.736C138.538 149.962 137.52 148.97 136.277 148.326C135.678 148.015 135.027 147.818 134.349 147.819C133.487 147.82 132.657 148.104 131.818 148.269C131.107 148.408 130.374 148.489 129.672 148.262C129.071 148.067 128.509 147.71 128.131 147.198C127.773 146.714 127.648 146.107 127.85 145.532C128.009 145.081 128.731 145.275 128.571 145.731C128.2 146.782 129.472 147.555 130.362 147.651C131.037 147.725 131.734 147.529 132.385 147.377C133.064 147.218 133.758 147.055 134.46 147.072C136.948 147.133 138.592 149.263 140.597 150.418C142.705 151.632 145.793 151.717 147.084 149.304C147.553 148.427 147.65 147.262 147.005 146.443C146.469 145.761 145.515 145.352 144.651 145.485C143.566 145.651 143.026 146.686 143.065 147.715C143.113 148.974 143.99 149.997 144.925 150.752C147.005 152.431 149.765 153.286 152.426 153.136C153.675 153.065 155.002 152.74 155.972 151.907C156.81 151.188 157.382 150.018 157.18 148.897C157.006 147.927 156.194 147.192 155.213 147.094C154.209 146.994 153.424 147.708 153.379 148.712C153.329 149.842 153.999 150.785 154.97 151.299C156.07 151.882 157.403 151.954 158.622 151.891C159.916 151.823 161.265 151.481 162.171 150.495C162.943 149.653 163.236 148.404 162.524 147.429C162.21 146.999 161.738 146.697 161.199 146.675C160.72 146.656 160.718 145.908 161.199 145.927Z" fill="black"/>
<path d="M127.157 145.126L127.538 142.767L148.67 102.317C149.02 101.647 149.85 101.387 150.519 101.738C151.188 102.088 151.447 102.919 151.097 103.589L129.974 144.021L128.247 145.697C128.043 145.894 127.748 145.937 127.497 145.805C127.245 145.673 127.112 145.406 127.157 145.126Z" fill="#767676"/>
<path d="M141.563 119.391C143.947 119.841 146.189 120.856 148.101 122.351L148.209 122.374L148.231 122.267L171.262 125.88L169.594 95.1995L187.049 85.625L182.923 137.485C182.029 140.797 178.597 142.731 175.307 141.777L145.989 133.331L146.062 132.97L145.959 132.943C143.616 133.575 141.156 133.637 138.784 133.122C132.834 131.916 128.633 127.864 129.399 124.072C130.166 120.28 135.611 118.184 141.563 119.391Z" fill="#FFB6B6"/>
<path d="M157.309 71.3492L176.979 65.8633C176.979 65.8633 187.312 73.4687 188.557 81.6975C188.705 82.6761 189.116 128.264 188.681 129.449C185.464 138.231 167.767 124.213 167.767 124.213L157.309 71.3492Z" fill="black"/>
<path d="M71.9902 153.288L69.9511 151.538C69.6476 151.277 69.2783 151.104 68.8835 151.038L23.4478 143.454C22.4108 143.281 21.6448 142.531 21.4485 141.497C21.2524 140.462 21.6906 139.483 22.5922 138.941L38.8016 129.201C39.3433 128.876 39.9808 128.773 40.5976 128.913L98.2064 141.947C99.3263 142.201 100.074 143.107 100.11 144.256C100.147 145.406 99.4591 146.358 98.3574 146.683L74.2703 153.778C74.0417 153.845 73.8086 153.878 73.5775 153.878C73.0026 153.878 72.44 153.674 71.9902 153.288Z" fill="#767676"/>
<path d="M50.109 96.7225C52.3612 97.6257 54.3646 99.056 55.9516 100.893L56.0527 100.937L56.0948 100.836L77.9922 108.846L101.373 70.9336L114.298 78.9562L87.1892 122.492C85.6724 125.568 81.9314 126.801 78.8875 125.227L51.7564 111.257L51.8981 110.916L51.8029 110.869C49.3818 111.036 46.9561 110.619 44.7287 109.654C39.1244 107.318 35.7856 102.528 37.271 98.9562C38.7565 95.3845 44.503 94.3842 50.109 96.7225Z" fill="#FFB6B6"/>
<path d="M126.453 77.7766L116.111 62.2891C116.111 62.2891 103.805 64.7285 98.7359 71.3234C98.1023 72.1478 76.3363 103.762 76.1961 105.142C75.2145 114.8 100.231 119.325 100.231 119.325L126.453 77.7766Z" fill="black"/>
<path d="M70.8634 153.751L18.7802 146.542C17.037 146.301 15.5983 145.05 15.1147 143.355L3.15249 101.425C2.74715 100.004 3.04975 98.5328 3.98272 97.3878C4.91569 96.2428 6.29411 95.6511 7.76602 95.7636L60.24 99.7898C62.1383 99.9354 63.732 101.274 64.2057 103.121L75.7771 148.234C76.1464 149.674 75.7771 151.195 74.7892 152.305C73.9386 153.26 72.7323 153.793 71.4748 153.793C71.2721 153.793 71.0677 153.78 70.8634 153.751Z" fill="#767676"/>
<path d="M59.2552 67.8681C59.5597 68.2035 60.6644 67.8618 62.8616 67.1648C64.5317 66.6349 64.789 66.4421 64.9478 66.3039C65.5063 65.8179 65.6527 65.3069 66.2059 63.0492C67.1988 58.9971 67.2295 58.5947 67.7394 57.7348C67.915 57.4387 68.3585 56.7324 68.2503 56.6449C68.1392 56.5549 67.6592 57.2907 66.7722 57.5688C65.9076 57.8397 65.5184 57.4057 64.7803 57.5162C63.8262 57.6591 63.2589 58.5668 62.369 60.0359C61.581 61.337 61.4819 61.8604 60.3771 64.4454C60.0641 65.1777 59.8121 65.7445 59.6186 66.1925C57.4494 68.22 55.2981 70.2743 53.1663 72.3464C53.2074 72.2835 53.246 72.2241 53.2796 72.1725C54.2239 70.7205 54.3522 69.9421 54.3385 69.3588C54.3163 68.4138 53.8656 67.6941 52.9652 66.2931C52.0829 64.9202 51.2469 64.0143 50.2396 62.9333C48.9193 61.5164 48.2591 60.8078 47.9962 60.8544C46.1184 61.1872 45.6163 73.9924 47.9789 76.2824C47.6473 76.5197 47.3727 76.7682 47.1741 77.0127C45.1516 74.7638 41.687 72.2513 37.849 71.942C35.4829 71.7513 34.177 72.4949 33.771 72.7503C31.8942 73.9308 30.7783 76.2937 31.3387 76.9604C31.8613 77.5821 33.3707 76.1687 36.3288 76.2465C38.3929 76.3009 40.0053 77.0508 40.9625 77.4961C42.9705 78.4301 43.7049 79.3483 45.1854 79.9773C44.4914 80.5501 43.9415 81.2649 43.5962 81.9316C43.4766 82.0551 43.3575 82.1792 43.238 82.3028C41.7104 81.4407 39.9901 80.8082 38.187 80.6629C35.8208 80.4722 34.5149 81.2158 34.1089 81.4712C32.844 82.2669 31.9274 83.5982 31.634 84.5867C31.4423 84.6253 31.2649 84.6693 31.1024 84.7168C30.529 83.4191 28.8227 82.0505 27.2361 81.3608C24.5049 80.1735 20.9572 80.4882 20.5776 81.6172C20.5655 81.6532 20.5625 81.6887 20.5571 81.7243C20.8565 79.3051 21.263 76.9029 21.7709 74.5181C21.7881 74.5861 21.8097 74.655 21.8385 74.7275C22.5127 76.4234 24.3345 78.0511 26.8178 78.8955C28.7669 79.5583 29.5832 79.2148 29.7906 79.1188C29.9887 79.0271 30.8443 78.6593 31.054 77.928C31.4427 76.572 29.0624 72.5646 27.561 73.9088C22.7371 78.2275 22.0751 74.7304 21.8536 74.1418C22.2637 72.2565 22.7358 70.3819 23.2652 68.518C23.2743 68.5294 23.2822 68.5406 23.2917 68.5521C24.3457 69.8321 26.3739 70.734 28.7574 70.7738C30.6281 70.8051 31.2393 70.2807 31.3922 70.1399C31.5381 70.0054 32.1766 69.449 32.1552 68.7577C32.1154 67.476 29.8387 66.4322 28.0172 66.2512C26.3386 66.0844 24.5311 66.5991 23.6345 67.2509C24.0513 65.8551 24.4998 64.4653 24.9781 63.0816C26.2032 63.5827 27.9385 63.5153 29.6432 62.7522C31.049 62.1229 31.3224 61.5186 31.3874 61.3603C31.4494 61.2091 31.732 60.5714 31.4756 60.0634C31.0001 59.1216 28.9393 59.1375 27.518 59.638C26.9327 59.8442 26.3763 60.1614 25.8995 60.5199C26.7472 58.252 27.6712 56.0002 28.665 53.765L27.669 53.5156C26.3996 56.3709 25.2927 59.2635 24.3415 62.1881C24.2232 61.3304 23.9268 60.4166 23.5366 59.6743C22.389 57.4915 19.938 55.8538 19.1091 56.3852C18.9432 56.4915 18.8734 56.6645 18.8103 56.8706C18.3022 58.5289 18.6849 60.8206 20.0231 62.9261C21.0733 64.5786 21.8822 64.8106 22.0929 64.863C22.2708 64.9074 22.9576 65.0973 23.5222 64.8526C23.1425 66.1555 22.7914 67.4641 22.4713 68.7785C22.0861 67.8207 21.327 66.8001 20.5242 66.0944C18.6729 64.4671 15.7991 63.8159 15.2148 64.609C15.0979 64.7677 15.0946 64.9543 15.1092 65.1694C15.227 66.8999 16.4029 68.9029 18.4045 70.3897C19.9756 71.5567 20.8138 71.4835 21.0293 71.457C21.1561 71.4415 21.5395 71.4032 21.9091 71.2359C21.566 72.8329 21.2661 74.4377 21.0069 76.0492C20.4885 74.2464 18.7276 71.9974 17.0656 72.7129C14.1165 73.9826 10.6499 72.0323 10.2683 72.8851C10.1691 73.107 10.2512 73.3358 10.3463 73.5841C11.1103 75.5821 13.2204 77.5179 16.1179 78.5459C18.3919 79.3528 19.354 78.9628 19.5985 78.8535C19.7606 78.781 20.2953 78.5573 20.6937 78.1421C20.4073 80.2128 20.1878 82.2942 20.0332 84.3845C19.4183 83.04 17.6864 81.6235 16.0651 80.8932C13.2211 79.6121 9.50143 79.8927 9.08831 81.0699C9.0057 81.3054 9.07087 81.5326 9.16831 81.7874C9.95259 83.8381 12.1184 85.825 15.0923 86.8802C17.4265 87.7083 18.4139 87.3081 18.6649 87.1959C18.8482 87.1139 19.4958 86.843 19.9087 86.3285C19.8558 87.2948 19.815 88.2628 19.7891 89.2326C19.7818 89.5089 19.7775 89.7851 19.7721 90.0613C19.7386 90.1155 19.7094 90.171 19.6899 90.2291C19.6103 90.466 19.6645 90.694 19.758 90.943C19.756 91.1185 19.7549 91.2938 19.7537 91.4692C19.2334 90.9969 18.6127 90.2866 17.8661 89.2745C17.1924 88.3613 16.5527 89.0313 16.1418 89.8089C15.4975 89.6652 14.883 89.7542 14.3998 90.2063C11.159 93.2382 7.52419 91.6296 7.47277 92.5336C7.45793 92.7945 7.59744 93.0019 7.7733 93.2269C9.18831 95.0372 11.9662 96.3579 15.2663 96.4971C17.8564 96.6063 18.7215 95.9014 18.9381 95.7118C19.0142 95.6452 19.1848 95.5014 19.3695 95.2992C19.5179 95.4178 19.6622 95.5254 19.807 95.6236C19.864 97.3591 19.9659 99.0927 20.117 100.823C19.9942 100.834 19.8767 100.855 19.7892 100.864C18.5346 100.992 18.1118 99.2961 16.2166 98.6768C15.5872 98.4711 14.3747 98.2467 13.7357 98.6768C13.6437 98.7387 13.3297 98.9717 12.8425 99.1737C12.5546 99.2932 12.3346 99.3485 12.2471 99.3725C11.4695 99.5855 10.7493 100.17 10.2624 100.565C9.34709 101.308 8.88948 101.68 8.6746 102.354C8.607 102.567 8.4168 103.164 8.6746 103.746C8.79642 104.021 9.07914 104.43 10.1632 104.839C10.8074 105.082 12.6866 105.792 14.9265 105.038C15.4366 104.866 15.0472 104.928 17.0105 103.945C18.5551 103.171 19.4585 102.802 19.5907 102.056C19.6372 101.794 19.5903 101.475 19.7892 101.361C19.8997 101.297 20.0333 101.328 20.1666 101.376C20.2966 102.767 20.4589 104.156 20.6556 105.542H18.8882C16.5413 105.542 14.4358 106.85 13.3937 108.956L6.78256 122.314C6.36519 123.157 6.14453 124.1 6.14453 125.041V159.388C6.14453 162.775 8.89556 165.53 12.277 165.53H27.7084C31.0899 165.53 33.8409 162.775 33.8409 159.388V127.761C33.8409 126.99 33.6983 126.235 33.417 125.517L27.1162 109.44C26.352 107.49 24.6969 106.111 22.7184 105.684C23.353 104.93 23.9886 104.178 24.6292 103.427C25.4357 103.817 26.323 104.137 27.2769 104.361C29.8006 104.956 30.7823 104.426 31.0307 104.28C31.2679 104.141 32.2961 103.576 32.4704 102.634C32.489 102.533 32.4962 102.431 32.4949 102.328C35.08 104.432 36.4284 105.47 37.4137 105.124C38.2607 104.827 38.7442 103.852 39.0211 102.978C39.3103 103.018 39.617 103.059 39.9438 103.103C43.4843 103.576 45.2684 103.796 45.9508 102.956C46.8954 101.794 45.9989 99.552 45.7518 98.9344C45.2147 97.5918 44.3885 96.775 43.8753 96.278C43.2089 95.6327 41.3095 93.7935 38.3191 93.5482C37.6691 93.4948 37.0851 93.5358 36.4902 93.6604C36.2829 93.4705 36.0641 93.2845 35.8232 93.1077C35.3642 92.771 34.9109 92.5216 34.423 92.3267C35.1714 91.5055 35.9219 90.6869 36.6759 89.8716C36.7953 89.926 36.9086 89.9785 37.0128 90.027C39.4829 91.1759 40.0256 92.301 42.4012 92.8933C43.4789 93.162 44.699 93.4663 45.001 93.0089C45.5377 92.1964 43.26 88.8531 39.7402 86.5911C39.9776 86.3394 40.2155 86.0886 40.4533 85.8376C40.7752 85.9728 41.0588 86.1046 41.3004 86.217C43.7706 87.3659 44.3133 88.491 46.6889 89.0833C47.7665 89.352 48.9866 89.6563 49.2888 89.1989C49.7675 88.4739 48.0058 85.7334 45.1205 83.5443C45.9131 83.2922 46.964 83.0129 48.3248 83.0487C50.3889 83.103 52.0013 83.853 52.9585 84.2982C55.4287 85.4472 55.9714 86.5723 58.3469 87.1646C59.4246 87.4333 60.6447 87.7375 60.9468 87.2801C61.7445 86.0722 56.3263 79.2665 49.845 78.7441C49.3419 78.7036 48.8897 78.707 48.4809 78.7373C48.4244 78.6435 48.3631 78.5473 48.2985 78.4494C50.4914 78.52 54.774 77.8921 58.4192 80.4551C59.4703 81.1942 61.5122 82.9326 64.9293 84.3609C66.0215 84.8175 66.5707 85.0419 66.722 84.8545C67.2634 84.1835 62.7613 78.661 56.4275 75.9405C53.9162 74.8619 52.3646 74.7598 51.261 74.9232C51.4311 74.729 51.5969 74.5286 51.7564 74.3273C54.2228 71.9048 56.7202 69.5076 59.2401 67.1427C59.1181 67.5204 59.1222 67.7215 59.2552 67.8681ZM27.6048 98.0191C24.8191 97.1159 21.4458 97.6012 20.5663 98.6288C20.4422 97.718 20.3345 96.8059 20.2457 95.8921C21.5148 96.6019 22.839 96.7921 25.3511 97.128C26.421 97.271 27.328 97.3901 28.0952 97.4646C28.1983 97.7443 28.3082 97.9961 28.4357 98.2369C28.4505 98.2648 28.4663 98.2914 28.4814 98.319L28.4592 98.3444C28.1731 98.2202 27.8865 98.1105 27.6048 98.0191ZM20.2035 85.7833C20.2829 85.5194 20.2846 85.2382 20.2239 84.9484C20.3106 83.8985 20.4188 82.8518 20.5468 81.8083C20.5435 81.968 20.5941 82.1279 20.663 82.3012C21.4375 84.2491 23.53 86.1187 26.3824 87.0887C26.9145 87.2696 27.3709 87.3837 27.7641 87.4534C27.5911 87.7552 27.4586 88.0494 27.3708 88.3215C26.3983 87.5391 25.1466 86.9702 23.7264 87.5738C23.3399 87.7381 23.1105 88.3389 22.9112 89.0575C21.5992 89.0801 20.5028 89.3543 19.9806 89.8181C19.9834 89.6246 19.9824 89.4316 19.9876 89.2378C20.017 88.1335 20.0714 87.0327 20.148 85.9353C20.1689 85.8861 20.1877 85.8357 20.2035 85.7833ZM19.9843 91.4637C20.0409 91.5797 20.1028 91.6951 20.1671 91.8101C20.1088 91.767 20.049 91.7207 19.9877 91.6706C19.986 91.6017 19.9856 91.5327 19.9843 91.4637ZM22.2245 105.599C22.0717 105.579 21.9176 105.564 21.7619 105.555C21.4028 103.77 21.0712 101.985 20.7936 100.197C21.5235 101.358 22.7149 102.42 24.2325 103.225C23.5591 104.015 22.8913 104.806 22.2245 105.599ZM33.9821 92.1686C33.0321 91.863 31.9173 91.7167 30.3744 91.5373C29.9835 90.9931 29.5804 90.5921 29.2825 90.3037C29.1211 90.1474 28.8734 89.8375 28.5525 89.4749C29.3841 89.2076 30.6253 88.7313 32.3791 88.7774C33.9731 88.8194 35.2959 89.2759 36.2573 89.6868C35.4958 90.5108 34.738 91.3385 33.9821 92.1686ZM39.3661 86.3572C38.4326 85.7923 37.4202 85.3086 36.3544 84.9686C36.4579 84.9677 36.5593 84.9646 36.6668 84.9675C37.9885 85.0023 39.1236 85.3223 40.0214 85.6649C39.8029 85.8956 39.5841 86.126 39.3661 86.3572Z" fill="#CCCCCC"/>
</g>
</g>
<defs>
<clipPath id="clip0_617_1755">
<rect width="213" height="170" fill="white" transform="translate(0.5 0.5)"/>
</clipPath>
</defs>
</svg>
