<svg width="1326" height="372" viewBox="0 0 1326 372" fill="none" xmlns="http://www.w3.org/2000/svg">
<g clip-path="url(#clip0_582_1663)">
<path d="M1310 0H16C7.16344 0 0 7.16344 0 16V356C0 364.837 7.16344 372 16 372H1310C1318.84 372 1326 364.837 1326 356V16C1326 7.16344 1318.84 0 1310 0Z" fill="black"/>
<path d="M1264.17 -185.513L1047.3 -95.0094C1022.83 -84.7999 1011.28 -56.6908 1021.49 -32.2259L1138.8 248.888C1149.01 273.353 1177.12 284.909 1201.58 274.7L1418.46 184.196C1442.92 173.986 1454.48 145.877 1444.27 121.412L1326.95 -159.702C1316.74 -184.167 1288.64 -195.723 1264.17 -185.513Z" fill="white" fill-opacity="0.19"/>
<path d="M9.5826 61.4875L-107.702 110.432C-132.167 120.642 -143.724 148.751 -133.514 173.215L-84.3658 290.989C-74.1563 315.454 -46.0472 327.01 -21.5823 316.8L95.7027 267.856C120.168 257.646 131.724 229.537 121.514 205.072L72.366 87.2991C62.1566 62.8342 34.0475 51.278 9.5826 61.4875Z" fill="white" fill-opacity="0.19"/>
<path d="M468.127 318.486L416.298 340.116C391.833 350.325 380.276 378.434 390.486 402.899L412.254 455.062C422.464 479.527 450.573 491.083 475.038 480.874L526.868 459.244C551.332 449.035 562.889 420.926 552.679 396.461L530.911 344.298C520.701 319.833 492.592 308.277 468.127 318.486Z" fill="white" fill-opacity="0.19"/>
</g>
<defs>
<clipPath id="clip0_582_1663">
<rect width="1326" height="372" fill="white"/>
</clipPath>
</defs>
</svg>
