<svg width="30" height="30" viewBox="0 0 30 30" fill="none" xmlns="http://www.w3.org/2000/svg">
<g clip-path="url(#clip0_585_1678)">
<path d="M15 30C23.2843 30 30 23.2843 30 15C30 6.71573 23.2843 0 15 0C6.71573 0 0 6.71573 0 15C0 23.2843 6.71573 30 15 30Z" fill="black"/>
<path d="M18.04 13.7635H16.1V22.5435H13.26V13.7635H12V11.4635H13.26V10.9035C13.26 9.54353 13.6467 8.54353 14.42 7.90353C15.1933 7.26353 16.36 6.96353 17.92 7.00353V9.36353C17.24 9.3502 16.7667 9.46353 16.5 9.70353C16.2333 9.94353 16.1 10.3769 16.1 11.0035V11.4635H18.04V13.7635Z" fill="white"/>
</g>
<defs>
<clipPath id="clip0_585_1678">
<rect width="30" height="30" fill="white"/>
</clipPath>
</defs>
</svg>
