<svg xmlns="http://www.w3.org/2000/svg" viewBox="0 0 448 512" aria-hidden="true" focusable="false">
  <path fill="#000000" d="M224.1 141c-63.6 0-115 51.4-115 115s51.4 115 115 115 115-51.4 115-115-51.4-115-115-115zm0 190c-41.4 0-75-33.6-75-75s33.6-75 75-75 75 33.6 75 75-33.6 75-75 75zm146.4-194.1c0 14.9-12.1 27-27 27-14.9 0-27-12.1-27-27s12.1-27 27-27 27 12.1 27 27zM398.8 80c-8.2-19.5-24.1-35.4-43.6-43.6C331.6 24 224 24 224 24s-107.6 0-131.2 12.4c-19.5 8.2-35.4 24.1-43.6 43.6C32 150.4 32 224 32 224s0 73.6 17.2 144.4c8.2 19.5 24.1 35.4 43.6 43.6C116.4 488 224 488 224 488s107.6 0 131.2-12.4c19.5-8.2 35.4-24.1 43.6-43.6C416 297.6 416 224 416 224s0-73.6-17.2-144.4zM370.7 368c-7.8 19-23 34.2-42 42-29.1 11.9-98.1 9.2-104.7 9.2s-75.6 2.7-104.7-9.2c-19-7.8-34.2-23-42-42-11.9-29.1-9.2-98.1-9.2-104.7s-2.7-75.6 9.2-104.7c7.8-19 23-34.2 42-42C125.9 62.9 194.9 65.6 201.5 65.6s75.6-2.7 104.7 9.2c19 7.8 34.2 23 42 42 11.9 29.1 9.2 98.1 9.2 104.7s2.8 75.6-9.2 104.7z"></path>
</svg>
