<svg width="30" height="30" viewBox="0 0 30 30" fill="none" xmlns="http://www.w3.org/2000/svg">
<g clip-path="url(#clip0_585_1681)">
<path d="M15 30C23.2843 30 30 23.2843 30 15C30 6.71573 23.2843 0 15 0C6.71573 0 0 6.71573 0 15C0 23.2843 6.71573 30 15 30Z" fill="black"/>
<path d="M10.204 11.296C9.85867 11.296 9.56933 11.1887 9.336 10.974C9.112 10.75 9 10.4747 9 10.148C9 9.82133 9.112 9.55067 9.336 9.336C9.56933 9.112 9.85867 9 10.204 9C10.5493 9 10.834 9.112 11.058 9.336C11.2913 9.55067 11.408 9.82133 11.408 10.148C11.408 10.4747 11.2913 10.75 11.058 10.974C10.834 11.1887 10.5493 11.296 10.204 11.296ZM11.17 12.22V19.976H9.21V12.22H11.17Z" fill="white"/>
<path d="M17.4044 12.1074C18.3284 12.1074 19.0751 12.4014 19.6444 12.9894C20.2137 13.5681 20.4984 14.3801 20.4984 15.4254V19.9754H18.5384V15.6914C18.5384 15.0754 18.3844 14.6041 18.0764 14.2774C17.7684 13.9414 17.3484 13.7734 16.8164 13.7734C16.2751 13.7734 15.8457 13.9414 15.5284 14.2774C15.2204 14.6041 15.0664 15.0754 15.0664 15.6914V19.9754H13.1064V12.2194H15.0664V13.1854C15.3277 12.8494 15.6591 12.5881 16.0604 12.4014C16.4711 12.2054 16.9191 12.1074 17.4044 12.1074Z" fill="white"/>
</g>
<defs>
<clipPath id="clip0_585_1681">
<rect width="30" height="30" fill="white"/>
</clipPath>
</defs>
</svg>
