<svg width="30" height="30" viewBox="0 0 30 30" fill="none" xmlns="http://www.w3.org/2000/svg">
<g clip-path="url(#clip0_585_1675)">
<path d="M15 30C23.2843 30 30 23.2843 30 15C30 6.71573 23.2843 0 15 0C6.71573 0 0 6.71573 0 15C0 23.2843 6.71573 30 15 30Z" fill="black"/>
<path d="M23.3715 10.2821C22.7627 10.5303 22.114 10.6949 21.4376 10.7748C22.1334 10.3886 22.6645 9.78182 22.9141 9.05043C22.2654 9.40994 21.5491 9.66389 20.7858 9.8056C20.1698 9.19595 19.2919 8.81836 18.3342 8.81836C16.476 8.81836 14.9801 10.2203 14.9801 11.9389C14.9801 12.1862 15.0026 12.424 15.0578 12.6503C12.2675 12.5239 9.7985 11.2808 8.13987 9.38712C7.85029 9.85411 7.68044 10.3886 7.68044 10.9641C7.68044 12.0445 8.27902 13.0023 9.17127 13.5567C8.63203 13.5472 8.10303 13.4017 7.65486 13.1725C7.65486 13.182 7.65486 13.1944 7.65486 13.2067C7.65486 14.7228 8.81826 15.982 10.3439 16.2721C10.0707 16.3416 9.77292 16.3749 9.46391 16.3749C9.24903 16.3749 9.03211 16.3634 8.82849 16.3216C9.26336 17.5571 10.4974 18.4654 11.9647 18.4949C10.8227 19.3252 9.37284 19.8254 7.80323 19.8254C7.52798 19.8254 7.26399 19.814 7 19.7826C8.48674 20.6738 10.2487 21.1827 12.1488 21.1827C18.325 21.1827 21.7016 16.4272 21.7016 12.3051C21.7016 12.1672 21.6965 12.034 21.6893 11.9018C22.3554 11.4624 22.9151 10.9136 23.3715 10.2821Z" fill="white"/>
</g>
<defs>
<clipPath id="clip0_585_1675">
<rect width="30" height="30" fill="white"/>
</clipPath>
</defs>
</svg>
