<svg xmlns="http://www.w3.org/2000/svg" viewBox="0 0 576 512">
  <path fill="#000000" d="M549.655 124.083c-6.281-23.65-24.805-42.176-48.455-48.455C465.225 64 288 64 288 64S110.775 64 74.8 75.628c-23.65 6.279-42.174 24.805-48.455 48.455C15.719 160.058 15.719 256 15.719 256s0 95.942 10.626 131.917c6.281 23.65 24.805 42.176 48.455 48.455C110.775 448 288 448 288 448s177.225 0 213.2-11.628c23.65-6.279 42.174-24.805 48.455-48.455C560.281 351.942 560.281 256 560.281 256s0-95.942-10.626-131.917zM232 334.059V177.941L357.334 256 232 334.059z"></path>
</svg>
