<svg width="1855" height="750" viewBox="0 0 1855 750" fill="none" xmlns="http://www.w3.org/2000/svg">
<g clip-path="url(#clip0_595_1687)">
<path d="M-65 -116H1855V614L-65 750V-116Z" fill="#E4E4E4"/>
<path d="M1748.53 -262.898L1380.36 -114.36C1291.24 -78.405 1248.15 22.9864 1284.1 112.104L1421.79 453.376C1457.74 542.493 1559.14 585.591 1648.25 549.636L2016.42 401.098C2105.54 365.143 2148.63 263.752 2112.68 174.634L1974.99 -166.638C1939.04 -255.755 1837.64 -298.852 1748.53 -262.898Z" fill="#DEDEDE"/>
<path d="M1749.18 -184.817L1434.07 -57.6811C1369.02 -31.4382 1337.56 42.5659 1363.81 107.612L1482.29 401.295C1508.54 466.341 1582.54 497.797 1647.59 471.554L1962.71 344.418C2027.75 318.175 2059.21 244.171 2032.97 179.125L1914.48 -114.558C1888.23 -179.604 1814.23 -211.06 1749.18 -184.817Z" fill="#CDCDCD"/>
<path d="M1733.29 -112.133L1495.96 -16.3834C1442.19 5.3135 1416.18 66.498 1437.88 120.276L1526.84 340.783C1548.54 394.561 1609.72 420.568 1663.5 398.871L1900.82 303.121C1954.6 281.424 1980.61 220.239 1958.91 166.461L1869.95 -54.0455C1848.25 -107.823 1787.07 -133.83 1733.29 -112.133Z" fill="#B9B9B9"/>
<g opacity="0.5">
<path d="M31.5684 535.691L-55.1726 467.333C-80.6356 447.267 -117.544 451.642 -137.611 477.105L-204.667 562.195C-224.733 587.658 -220.359 624.567 -194.896 644.633L-108.155 712.99C-82.6916 733.057 -45.7829 728.682 -25.7165 703.219L41.3398 618.129C61.4061 592.666 57.0314 555.757 31.5684 535.691Z" fill="#DEDEDE"/>
<path d="M10.5996 551.493L-65.632 491.418C-82.8811 477.824 -107.884 480.788 -121.477 498.037L-180.544 572.989C-194.137 590.238 -191.174 615.241 -173.925 628.834L-97.6932 688.909C-80.4441 702.503 -55.4414 699.539 -41.8481 682.29L17.2189 607.338C30.8122 590.089 27.8487 565.086 10.5996 551.493Z" fill="#B9B9B9"/>
<path d="M-12.7233 560.852L-69.2821 516.28C-82.4243 505.923 -101.474 508.181 -111.831 521.323L-155.646 576.922C-166.003 590.064 -163.745 609.113 -150.602 619.47L-94.0436 664.042C-80.9014 674.399 -61.8517 672.141 -51.4949 658.999L-7.67998 603.401C2.67687 590.258 0.418892 571.209 -12.7233 560.852Z" fill="#C0D3F0"/>
</g>
</g>
<defs>
<clipPath id="clip0_595_1687">
<rect width="1855" height="750" fill="white"/>
</clipPath>
</defs>
</svg>
